<svg xmlns="http://www.w3.org/2000/svg" width="465.01" height="462.063" viewBox="0 0 465.01 462.063">
  <g id="Grupo_24891" data-name="Grupo 24891" transform="translate(-2286.376 -226.123)">
    <g id="Grupo_24851" data-name="Grupo 24851" transform="translate(2286.376 344.303)">
      <path id="Trazado_8909" data-name="Trazado 8909" d="M2286.377,473.59v34.62l.034-.023a10.236,10.236,0,0,0,5.12,8.132l59.966,34.949a10.394,10.394,0,0,1,.023,17.95l-18.88,11.041-6.84-14.937-13.578,2.48v29.162a10.461,10.461,0,0,0,0,2.311v.068l.011-.012a10.161,10.161,0,0,0,5.3,7.95l15.527,8.551,2.99,1.63,3.6,1.994,4.212,2.333,169.672,93.375a10.4,10.4,0,0,0,8.267.759,10.562,10.562,0,0,0,1.937-.872l115.606-66.862,4.2-2.435,3.612-2.084,2.968-1.733,96.07-55.549a10.241,10.241,0,0,0,4.961-6.9v-.012a10.718,10.718,0,0,0,.033-4.156v-.034c0-.011-.011-.011-.011-.023l.2-31.11L2733.7,561.188l-127.3-73.51-142.412-82.231a10.46,10.46,0,0,0-10.374,0l-144.133,82.638L2299.3,475.028Z" transform="translate(-2286.377 -372.562)" fill="#d6edff"/>
      <path id="Trazado_8910" data-name="Trazado 8910" d="M2566.248,503.462V731.706a10.558,10.558,0,0,0,1.936-.872l115.606-66.862,4.2-2.435,3.612-2.084,2.968-1.733,96.07-55.549a10.243,10.243,0,0,0,4.961-6.9v-.012a10.713,10.713,0,0,0,.033-4.156v-.034c0-.011-.011-.011-.011-.023l.2-31.11-17.678,17.033-127.3-73.51Z" transform="translate(-2330.823 -388.347)" fill="#bbe0fd"/>
      <path id="Trazado_8911" data-name="Trazado 8911" d="M2746.193,530.942,2463.976,368.005a10.387,10.387,0,0,0-10.359-.016L2291.6,460.88a10.387,10.387,0,0,0-.063,17.985l59.969,34.946a10.386,10.386,0,0,1,.013,17.939l-34.223,20.015a10.387,10.387,0,0,0,.237,18.065L2513.537,677.7a10.386,10.386,0,0,0,10.208-.109L2746.2,548.928A10.386,10.386,0,0,0,2746.193,530.942Z" transform="translate(-2286.376 -366.614)" fill="#fff"/>
      <path id="Trazado_8912" data-name="Trazado 8912" d="M2399.111,649.454l-.424,31.274-30.359-16.707.425-31.273Z" transform="translate(-2299.391 -408.878)" fill="#fff"/>
      <path id="Trazado_8913" data-name="Trazado 8913" d="M2428.992,666.3v31.507l-9.15-5.035V661.263Z" transform="translate(-2307.572 -413.407)" fill="#fff"/>
    </g>
    <g id="Grupo_24856" data-name="Grupo 24856" transform="translate(2553.006 272.433)">
      <path id="Trazado_8914" data-name="Trazado 8914" d="M2700.054,334.637V495.871l-3,2.4-90.7-55.864-3-158.831,3-2.4Z" transform="translate(-2603.344 -281.175)" fill="#183561"/>
      <path id="Trazado_8915" data-name="Trazado 8915" d="M2603.344,284.032V445.266l93.707,53.461V337.493Z" transform="translate(-2603.344 -281.629)" fill="#a9d1ea"/>
      <path id="Trazado_8916" data-name="Trazado 8916" d="M2603.344,284.032v22.225l93.707,53.461V337.493Z" transform="translate(-2603.344 -281.629)" fill="#3c6a9e"/>
      <g id="Grupo_24855" data-name="Grupo 24855" transform="translate(9.728 47.681)">
        <g id="Grupo_24854" data-name="Grupo 24854">
          <path id="Trazado_8917" data-name="Trazado 8917" d="M2614.908,337.858l.044,7.393,50.915,29.5-.312-7.6Z" transform="translate(-2614.908 -337.858)" fill="#fec400"/>
          <path id="Trazado_8918" data-name="Trazado 8918" d="M2645.2,411.113l.044,7.394,50.915,29.5-.312-7.6Z" transform="translate(-2619.718 -349.492)" fill="#fec400"/>
          <g id="Grupo_24852" data-name="Grupo 24852" transform="translate(56.811 32.953)">
            <path id="Trazado_8919" data-name="Trazado 8919" d="M2682.444,377.033V384.2l19.137,11.1v-7.163Z" transform="translate(-2682.444 -377.033)" fill="#77b8e0"/>
          </g>
          <g id="Grupo_24853" data-name="Grupo 24853" transform="translate(8.231 36.682)">
            <path id="Trazado_8920" data-name="Trazado 8920" d="M2624.693,381.465v7.167l19.137,11.1v-7.163Z" transform="translate(-2624.693 -381.465)" fill="#77b8e0"/>
          </g>
          <path id="Trazado_8921" data-name="Trazado 8921" d="M2617.328,396.693v7.167l19.137,11.1v-7.163Z" transform="translate(-2615.292 -347.202)" fill="#fff"/>
          <path id="Trazado_8922" data-name="Trazado 8922" d="M2652.3,377.033l44.439,25.657v7.419L2652.215,384.2Z" transform="translate(-2620.833 -344.079)" fill="#fff"/>
          <path id="Trazado_8923" data-name="Trazado 8923" d="M2652.3,395.583l44.439,25.657v7.419l-44.521-25.909Z" transform="translate(-2620.833 -347.025)" fill="#fff"/>
        </g>
        <path id="Trazado_8924" data-name="Trazado 8924" d="M2614.908,414.657l.044,7.393,50.915,29.5-.312-7.6Z" transform="translate(-2614.908 -350.055)" fill="#fec400"/>
        <path id="Trazado_8925" data-name="Trazado 8925" d="M2645.2,472.553l.044,7.393,50.915,29.5-.312-7.6Z" transform="translate(-2619.718 -359.249)" fill="#fec400"/>
        <path id="Trazado_8926" data-name="Trazado 8926" d="M2682.444,453.832V461l19.137,11.1v-7.163Z" transform="translate(-2625.634 -356.276)" fill="#77b8e0"/>
        <path id="Trazado_8927" data-name="Trazado 8927" d="M2624.693,442.9v7.167l19.137,11.1V454Z" transform="translate(-2616.462 -354.54)" fill="#77b8e0"/>
        <path id="Trazado_8928" data-name="Trazado 8928" d="M2617.328,458.132V465.3l19.137,11.1v-7.163Z" transform="translate(-2615.292 -356.959)" fill="#fff"/>
        <path id="Trazado_8929" data-name="Trazado 8929" d="M2652.3,457.023l44.439,25.657V490.1l-44.521-25.909Z" transform="translate(-2620.833 -356.783)" fill="#fff"/>
      </g>
    </g>
    <g id="Grupo_24861" data-name="Grupo 24861" transform="translate(2494.416 336.65)">
      <path id="Trazado_8930" data-name="Trazado 8930" d="M2573.822,379.7v66.906l-1.246,1-37.639-23.181-1.246-65.909,1.246-1Z" transform="translate(-2533.691 -357.517)" fill="#183561"/>
      <path id="Trazado_8931" data-name="Trazado 8931" d="M2533.691,358.7v66.906l38.885,22.184V380.886Z" transform="translate(-2533.691 -357.705)" fill="#183561"/>
      <path id="Trazado_8932" data-name="Trazado 8932" d="M2533.691,358.7v9.223l38.885,22.184v-9.223Z" transform="translate(-2533.691 -357.705)" fill="#3c6a9e"/>
      <g id="Grupo_24860" data-name="Grupo 24860" transform="translate(4.037 19.786)">
        <g id="Grupo_24859" data-name="Grupo 24859">
          <path id="Trazado_8933" data-name="Trazado 8933" d="M2538.49,381.038l.018,3.068,21.128,12.241-.129-3.153Z" transform="translate(-2538.49 -381.038)" fill="#fec400"/>
          <path id="Trazado_8934" data-name="Trazado 8934" d="M2551.059,411.436l.018,3.068,21.128,12.24-.129-3.153Z" transform="translate(-2540.486 -385.865)" fill="#fec400"/>
          <g id="Grupo_24857" data-name="Grupo 24857" transform="translate(23.574 13.674)">
            <path id="Trazado_8935" data-name="Trazado 8935" d="M2566.515,397.294v2.974l7.942,4.6V401.9Z" transform="translate(-2566.515 -397.294)" fill="#77b8e0"/>
          </g>
          <g id="Grupo_24858" data-name="Grupo 24858" transform="translate(3.415 15.222)">
            <path id="Trazado_8936" data-name="Trazado 8936" d="M2542.55,399.133v2.974l7.942,4.6v-2.972Z" transform="translate(-2542.55 -399.133)" fill="#77b8e0"/>
          </g>
          <path id="Trazado_8937" data-name="Trazado 8937" d="M2539.495,405.452v2.974l7.942,4.6v-2.973Z" transform="translate(-2538.65 -384.915)" fill="#fff"/>
          <path id="Trazado_8938" data-name="Trazado 8938" d="M2554.005,397.294l18.441,10.647v3.079l-18.475-10.751Z" transform="translate(-2540.949 -383.619)" fill="#fff"/>
          <path id="Trazado_8939" data-name="Trazado 8939" d="M2554.005,404.992l18.441,10.647v3.079l-18.475-10.751Z" transform="translate(-2540.949 -384.842)" fill="#fff"/>
        </g>
        <path id="Trazado_8940" data-name="Trazado 8940" d="M2538.49,412.907l.018,3.068,21.128,12.241-.129-3.153Z" transform="translate(-2538.49 -386.099)" fill="#fec400"/>
        <path id="Trazado_8941" data-name="Trazado 8941" d="M2551.059,436.931l.018,3.068,21.128,12.24-.129-3.153Z" transform="translate(-2540.486 -389.914)" fill="#fec400"/>
        <path id="Trazado_8942" data-name="Trazado 8942" d="M2566.515,429.163v2.974l7.942,4.6v-2.972Z" transform="translate(-2542.941 -388.68)" fill="#77b8e0"/>
        <path id="Trazado_8943" data-name="Trazado 8943" d="M2542.55,424.628V427.6l7.942,4.6v-2.973Z" transform="translate(-2539.135 -387.96)" fill="#77b8e0"/>
        <path id="Trazado_8944" data-name="Trazado 8944" d="M2539.495,430.947v2.974l7.942,4.6v-2.972Z" transform="translate(-2538.65 -388.964)" fill="#fff"/>
        <path id="Trazado_8945" data-name="Trazado 8945" d="M2554.005,430.487l18.441,10.647v3.079l-18.475-10.751Z" transform="translate(-2540.949 -388.891)" fill="#fff"/>
      </g>
    </g>
    <g id="Grupo_24867" data-name="Grupo 24867" transform="translate(2439.553 427.495)">
      <path id="Trazado_8946" data-name="Trazado 8946" d="M2535.144,555.347l-65.877,38.381L2580.4,658.459l65.3-38.954Z" transform="translate(-2468.599 -479.779)" fill="#15325c" opacity="0.33" style="mix-blend-mode: multiply;isolation: isolate"/>
      <g id="Grupo_24862" data-name="Grupo 24862" transform="translate(1.382 50.397)">
        <rect id="Rect치ngulo_5767" data-name="Rect치ngulo 5767" width="72.12" height="4.01" transform="matrix(0.866, -0.5, 0.5, 0.866, 0, 36.082)" fill="#77b8e0"/>
      </g>
      <g id="Grupo_24863" data-name="Grupo 24863" transform="translate(0.668 38.954)">
        <path id="Trazado_8947" data-name="Trazado 8947" d="M2471.558,589.154a2.292,2.292,0,0,1-2.291-2.291V514.112a2.292,2.292,0,0,1,4.583,0v72.751A2.292,2.292,0,0,1,2471.558,589.154Z" transform="translate(-2469.267 -511.82)" fill="#77b8e0"/>
      </g>
      <path id="Trazado_8948" data-name="Trazado 8948" d="M2468.472,583.324v14.8a2.96,2.96,0,1,0,5.92,0v-14.8Z" transform="translate(-2468.472 -484.221)" fill="#1c427e"/>
      <g id="Grupo_24864" data-name="Grupo 24864" transform="translate(172.522 64.731)">
        <path id="Trazado_8949" data-name="Trazado 8949" d="M2675.857,619.8a2.291,2.291,0,0,1-2.292-2.291V544.755a2.291,2.291,0,1,1,4.583,0v72.752A2.292,2.292,0,0,1,2675.857,619.8Z" transform="translate(-2673.565 -542.464)" fill="#77b8e0"/>
      </g>
      <path id="Trazado_8950" data-name="Trazado 8950" d="M2672.77,613.969v14.8a2.96,2.96,0,1,0,5.919,0v-14.8Z" transform="translate(-2500.916 -489.088)" fill="#1c427e"/>
      <g id="Grupo_24865" data-name="Grupo 24865" transform="translate(109.509 101.967)">
        <path id="Trazado_8951" data-name="Trazado 8951" d="M2600.947,664.063a2.291,2.291,0,0,1-2.291-2.291V589.021a2.291,2.291,0,1,1,4.583,0v72.751A2.291,2.291,0,0,1,2600.947,664.063Z" transform="translate(-2598.655 -586.729)" fill="#77b8e0"/>
      </g>
      <path id="Trazado_8952" data-name="Trazado 8952" d="M2535.144,473l-65.877,32.079v6.3L2580.4,576.115l65.3-38.954v-6.3Z" transform="translate(-2468.599 -466.702)" fill="#a9d1ea"/>
      <path id="Trazado_8953" data-name="Trazado 8953" d="M2535.144,465.512l-65.877,38.381L2580.4,568.624l65.3-38.954Z" transform="translate(-2468.599 -465.512)" fill="#bbe0fd"/>
      <path id="Trazado_8954" data-name="Trazado 8954" d="M2597.861,658.233v14.8a2.96,2.96,0,0,0,5.919,0v-14.8Z" transform="translate(-2489.02 -496.118)" fill="#1c427e"/>
      <g id="Grupo_24866" data-name="Grupo 24866" transform="translate(111.368 115.701)">
        <rect id="Rect치ngulo_5768" data-name="Rect치ngulo 5768" width="72.12" height="4.01" transform="matrix(0.866, -0.5, 0.5, 0.866, 0, 36.082)" fill="#77b8e0"/>
      </g>
    </g>
    <g id="Grupo_24871" data-name="Grupo 24871" transform="translate(2466.454 226.123)">
      <path id="Trazado_8955" data-name="Trazado 8955" d="M2569.648,264.375v76.074l-2.149,1.719L2502.6,302.2l-2.149-74.355,2.149-1.719Z" transform="translate(-2500.452 -226.123)" fill="#183561"/>
      <path id="Trazado_8956" data-name="Trazado 8956" d="M2500.452,228.167V304.24l67.048,38.252V266.418Z" transform="translate(-2500.452 -226.447)" fill="#a9d1ea"/>
      <path id="Trazado_8957" data-name="Trazado 8957" d="M2500.452,228.167v15.9l67.048,38.252v-15.9Z" transform="translate(-2500.452 -226.447)" fill="#3c6a9e"/>
      <g id="Grupo_24870" data-name="Grupo 24870" transform="translate(4.649 31.805)">
        <path id="Trazado_8958" data-name="Trazado 8958" d="M2505.979,263.932l.032,5.29,36.43,21.106-.223-5.437Z" transform="translate(-2505.979 -263.932)" fill="#fec400"/>
        <path id="Trazado_8959" data-name="Trazado 8959" d="M2527.651,316.347l.031,5.29,36.43,21.106-.224-5.437Z" transform="translate(-2509.42 -272.256)" fill="#fec400"/>
        <g id="Grupo_24868" data-name="Grupo 24868" transform="translate(40.648 23.578)">
          <path id="Trazado_8960" data-name="Trazado 8960" d="M2554.3,291.962v5.128l13.693,7.94V299.9Z" transform="translate(-2554.301 -291.962)" fill="#77b8e0"/>
        </g>
        <g id="Grupo_24869" data-name="Grupo 24869" transform="translate(5.889 26.246)">
          <path id="Trazado_8961" data-name="Trazado 8961" d="M2512.98,295.133v5.128l13.693,7.94v-5.125Z" transform="translate(-2512.98 -295.133)" fill="#77b8e0"/>
        </g>
        <path id="Trazado_8962" data-name="Trazado 8962" d="M2507.71,306.029v5.128l13.693,7.94v-5.125Z" transform="translate(-2506.253 -270.617)" fill="#fff"/>
        <path id="Trazado_8963" data-name="Trazado 8963" d="M2532.731,291.962l31.8,18.358v5.308l-31.855-18.538Z" transform="translate(-2510.217 -268.384)" fill="#fff"/>
        <path id="Trazado_8964" data-name="Trazado 8964" d="M2532.731,305.235l31.8,18.358V328.9l-31.855-18.538Z" transform="translate(-2510.217 -270.491)" fill="#fff"/>
      </g>
    </g>
    <g id="Grupo_24877" data-name="Grupo 24877" transform="translate(2503.14 436.129)">
      <path id="Trazado_8965" data-name="Trazado 8965" d="M2577.56,514.242a1.644,1.644,0,1,1-1.644-1.644A1.644,1.644,0,0,1,2577.56,514.242Z" transform="translate(-2548.861 -481.624)" fill="#d6effb"/>
      <path id="Trazado_8966" data-name="Trazado 8966" d="M2576.747,476.519l1.3,31.527,32.869,21.364,1.3-.7a2.04,2.04,0,0,0,1.07-1.792V496.532a1.577,1.577,0,0,0-.779-1.359l-32.618-19.1a2.186,2.186,0,0,0-2.163-.024Z" transform="translate(-2549.253 -475.776)" fill="#a9d1ea"/>
      <path id="Trazado_8967" data-name="Trazado 8967" d="M2576.337,477.5v31.732l35.242,20.086v-31.6a1.573,1.573,0,0,0-.776-1.354l-33.328-19.513a.755.755,0,0,0-1.138.652Z" transform="translate(-2549.189 -475.93)" fill="#d6effb"/>
      <path id="Trazado_8968" data-name="Trazado 8968" d="M2577.205,480.842v26.5l4.171,2.377,1.253.715,8.564,4.881,4.744,2.7,7.448,4.246,7.236,4.124V500.407l-7.083-4.146-3.834-2.245-6.049-3.541-7.278-4.262-4.532-2.653-3.308-1.936Z" transform="translate(-2549.326 -476.58)" fill="#183561"/>
      <path id="Trazado_8969" data-name="Trazado 8969" d="M2605.391,539.439l-26.129,15a2.21,2.21,0,0,1-2.21-.005l-32.181-18.675a1.556,1.556,0,0,1-.775-1.394l.045-1.486,27.441-14.69L2606.46,535.9v1.691a2.127,2.127,0,0,1-1.069,1.844Z" transform="translate(-2544.068 -482.512)" fill="#a9d1ea"/>
      <path id="Trazado_8970" data-name="Trazado 8970" d="M2606.454,535.353l-27.112,16.617a2.345,2.345,0,0,1-2.4.029l-32.276-18.729a1.211,1.211,0,0,1-.024-2.08l26.935-16.47Z" transform="translate(-2544.063 -481.96)" fill="#d6effb"/>
      <path id="Trazado_8971" data-name="Trazado 8971" d="M2604.14,535.695l-31.864-18.851-21.322,13.037,31.864,18.851Z" transform="translate(-2545.157 -482.298)" fill="#77b8e0"/>
      <circle id="Elipse_1350" data-name="Elipse 1350" cx="1.643" cy="1.643" r="1.643" transform="translate(60.522 51.535)" fill="#a9d1ea"/>
      <g id="Grupo_24872" data-name="Grupo 24872" transform="translate(8.707 36.242)" opacity="0.71">
        <path id="Trazado_8972" data-name="Trazado 8972" d="M2592.992,534.516l-4.327-2.56-3.251,1.923,4.327,2.56Z" transform="translate(-2559.337 -520.94)" fill="#d6edff"/>
        <path id="Trazado_8973" data-name="Trazado 8973" d="M2579.537,530.4l4.327,2.56,3.251-1.923-4.327-2.56Z" transform="translate(-2558.404 -520.387)" fill="#d6edff"/>
        <path id="Trazado_8974" data-name="Trazado 8974" d="M2594.339,533.735l3.109-1.839-4.327-2.56-3.109,1.839Z" transform="translate(-2560.068 -520.524)" fill="#d6edff"/>
        <path id="Trazado_8975" data-name="Trazado 8975" d="M2600.215,537.212l3.109-1.839-4.327-2.56-3.109,1.839Z" transform="translate(-2561.001 -521.076)" fill="#d6edff"/>
        <path id="Trazado_8976" data-name="Trazado 8976" d="M2564.466,532.366l4.327,2.56,3.251-1.923-4.327-2.56Z" transform="translate(-2556.011 -520.699)" fill="#d6edff"/>
        <path id="Trazado_8977" data-name="Trazado 8977" d="M2574.94,533.122l4.327,2.56,3.251-1.923-4.328-2.56Z" transform="translate(-2557.674 -520.819)" fill="#d6edff"/>
        <path id="Trazado_8978" data-name="Trazado 8978" d="M2569.063,529.646l4.327,2.56,3.251-1.923-4.327-2.56Z" transform="translate(-2556.741 -520.267)" fill="#d6edff"/>
        <path id="Trazado_8979" data-name="Trazado 8979" d="M2606.143,540.719l3.054-1.872-4.323-2.558-3.109,1.839Z" transform="translate(-2561.934 -521.628)" fill="#d6edff"/>
        <path id="Trazado_8980" data-name="Trazado 8980" d="M2566.2,529.539l-4.2-2.487-3.2,1.955,4.149,2.455Z" transform="translate(-2555.11 -520.161)" fill="#d6edff"/>
        <path id="Trazado_8981" data-name="Trazado 8981" d="M2557.5,529.817l-3.083,1.885,4.088,2.419,3.135-1.855Z" transform="translate(-2554.414 -520.6)" fill="#d6edff"/>
        <path id="Trazado_8982" data-name="Trazado 8982" d="M2570.786,526.812l-4.267-2.525-3.2,1.955,4.214,2.493Z" transform="translate(-2555.829 -519.722)" fill="#d6edff"/>
        <path id="Trazado_8983" data-name="Trazado 8983" d="M2577.921,536.479l-4.327-2.56-3.251,1.923,4.327,2.56Z" transform="translate(-2556.944 -521.252)" fill="#d6edff"/>
        <path id="Trazado_8984" data-name="Trazado 8984" d="M2588.462,530.259l3.109-1.839-4.327-2.56-3.109,1.839Z" transform="translate(-2559.135 -519.971)" fill="#d6edff"/>
        <path id="Trazado_8985" data-name="Trazado 8985" d="M2582.584,526.782l3.11-1.839-4.328-2.56-3.109,1.839Z" transform="translate(-2558.201 -519.419)" fill="#d6edff"/>
        <path id="Trazado_8986" data-name="Trazado 8986" d="M2575.371,524.085l-4.331-2.562-3.2,1.955,4.277,2.531Z" transform="translate(-2556.547 -519.283)" fill="#d6edff"/>
        <path id="Trazado_8987" data-name="Trazado 8987" d="M2595.821,541.63l-3.251,1.923,4.515,2.671,3.193-1.957Z" transform="translate(-2560.474 -522.476)" fill="#d6edff"/>
        <path id="Trazado_8988" data-name="Trazado 8988" d="M2595.749,547.027l-4.525-2.677-3.251,1.923,4.583,2.711Z" transform="translate(-2559.744 -522.908)" fill="#d6edff"/>
        <path id="Trazado_8989" data-name="Trazado 8989" d="M2589.674,543.433l-4.327-2.56L2582.1,542.8l4.327,2.56Z" transform="translate(-2558.811 -522.356)" fill="#d6edff"/>
        <path id="Trazado_8990" data-name="Trazado 8990" d="M2576.706,523.3l3.11-1.839-4.393-2.6-3.058,1.87Z" transform="translate(-2557.265 -518.86)" fill="#d6edff"/>
        <path id="Trazado_8991" data-name="Trazado 8991" d="M2586.649,547.069l-3.135,1.855,4.649,2.751,3.08-1.888Z" transform="translate(-2559.036 -523.34)" fill="#d6edff"/>
        <path id="Trazado_8992" data-name="Trazado 8992" d="M2585.1,546.153l-4.327-2.56-3.135,1.855,4.327,2.56Z" transform="translate(-2558.103 -522.788)" fill="#d6edff"/>
        <path id="Trazado_8993" data-name="Trazado 8993" d="M2600.418,538.91l-3.251,1.923,4.447,2.631,3.194-1.957Z" transform="translate(-2561.204 -522.044)" fill="#d6edff"/>
        <path id="Trazado_8994" data-name="Trazado 8994" d="M2588.395,537.236l-4.327-2.56-3.251,1.923,4.327,2.56Z" transform="translate(-2558.607 -521.372)" fill="#d6edff"/>
        <path id="Trazado_8995" data-name="Trazado 8995" d="M2598.869,537.993l-4.327-2.56-3.251,1.923,4.327,2.56Z" transform="translate(-2560.271 -521.492)" fill="#d6edff"/>
        <path id="Trazado_8996" data-name="Trazado 8996" d="M2594.271,540.713l-4.327-2.56-3.251,1.923,4.327,2.56Z" transform="translate(-2559.541 -521.924)" fill="#d6edff"/>
        <path id="Trazado_8997" data-name="Trazado 8997" d="M2583.759,539.956l-4.327-2.56-3.251,1.923-.2-.121,4.531,2.681Z" transform="translate(-2557.839 -521.804)" fill="#d6edff"/>
        <path id="Trazado_8998" data-name="Trazado 8998" d="M2573.661,526.926l4.327,2.56,3.251-1.923-4.327-2.56Z" transform="translate(-2557.471 -519.835)" fill="#d6edff"/>
        <path id="Trazado_8999" data-name="Trazado 8999" d="M2567.469,535.722l-4.327-2.56-3.135,1.855,4.327,2.56Z" transform="translate(-2555.302 -521.131)" fill="#d6edff"/>
        <path id="Trazado_9000" data-name="Trazado 9000" d="M2578.289,542.124l-9.271-5.485-3.135,1.855,9.271,5.485Z" transform="translate(-2556.236 -521.683)" fill="#d6edff"/>
      </g>
      <g id="Grupo_24876" data-name="Grupo 24876" transform="translate(33.514 21.002)">
        <path id="Trazado_9001" data-name="Trazado 9001" d="M2594.925,503.086l.8.467,1.715,1,3.169,1.855v1.4l-3.169-1.855-1.715-1-.8-.467Z" transform="translate(-2585.654 -501.115)" fill="#fff"/>
        <path id="Trazado_9002" data-name="Trazado 9002" d="M2605.2,500.775l.8.467,1.716,1,3.169,1.855v1.4l-3.169-1.855-1.716-1-.8-.467Z" transform="translate(-2587.286 -500.748)" fill="#fff"/>
        <path id="Trazado_9003" data-name="Trazado 9003" d="M2605.2,503.6l.8.467,1.716,1,3.169,1.856v1.4l-3.169-1.856-1.716-1-.8-.467Z" transform="translate(-2587.286 -501.196)" fill="#fec400"/>
        <g id="Grupo_24873" data-name="Grupo 24873">
          <path id="Trazado_9004" data-name="Trazado 9004" d="M2584.5,501.092l1.481.866,2.028,1.187,3.257,1.907,2.449,1.434v1.4l-2.449-1.434-3.257-1.907-2.028-1.187-1.481-.866-.6-.349v-1.4Z" transform="translate(-2583.904 -500.742)" fill="#f02098"/>
          <path id="Trazado_9005" data-name="Trazado 9005" d="M2596.081,507.872l1.541.9,3.17,1.855v1.4l-3.17-1.855-1.541-.9Z" transform="translate(-2585.837 -501.875)" fill="#fff"/>
        </g>
        <g id="Grupo_24874" data-name="Grupo 24874" transform="translate(0 5.617)">
          <path id="Trazado_9006" data-name="Trazado 9006" d="M2593,512.746l2.418,1.416,1.716,1,3.169,1.856v1.4l-3.169-1.855-1.716-1L2593,514.15Z" transform="translate(-2585.348 -508.266)" fill="#fec400"/>
          <path id="Trazado_9007" data-name="Trazado 9007" d="M2584.5,507.77l1.481.866,2.028,1.187,3.114,1.824v1.4l-3.114-1.823-2.028-1.187-1.481-.866-.6-.349v-1.4Z" transform="translate(-2583.904 -507.42)" fill="#fff"/>
        </g>
        <g id="Grupo_24875" data-name="Grupo 24875" transform="translate(0 2.809)">
          <path id="Trazado_9008" data-name="Trazado 9008" d="M2590.3,507.828l1.979,1.159,2.707,1.585,1.579.925v1.4l-1.579-.925-2.707-1.585-1.979-1.159Z" transform="translate(-2584.92 -504.676)" fill="#fff"/>
          <path id="Trazado_9009" data-name="Trazado 9009" d="M2598.264,512.489l2.874,1.683v1.4l-2.874-1.682Z" transform="translate(-2586.184 -505.417)" fill="#fff"/>
          <path id="Trazado_9010" data-name="Trazado 9010" d="M2584.5,504.431l1.481.866,2.028,1.187.845.495v1.4l-.845-.495-2.028-1.187-1.481-.866-.6-.349v-1.4Z" transform="translate(-2583.904 -504.081)" fill="#fff"/>
        </g>
      </g>
    </g>
    <g id="Grupo_24881" data-name="Grupo 24881" transform="translate(2435.634 423.178)">
      <path id="Trazado_9011" data-name="Trazado 9011" d="M2481.968,652.656l35.179,20.581,36.069-22.463L2517.691,631.4Z" transform="translate(-2466.696 -487.539)" fill="#15325c" opacity="0.33" style="mix-blend-mode: multiply;isolation: isolate"/>
      <path id="Trazado_9012" data-name="Trazado 9012" d="M2577.12,639.2c-.7-2.449-11.545-3.149-11.545-3.149l-10.145,4.547c.35,5.6,1.4,7,3.847,7,16.093-1.749,17.842-4.9,17.842-4.9S2577.82,641.653,2577.12,639.2Z" transform="translate(-2478.363 -488.279)" fill="#052754"/>
      <path id="Trazado_9013" data-name="Trazado 9013" d="M2556.236,631.858c-.7-2.449-11.544-3.149-11.544-3.149l-10.146,4.548c.35,5.6,1.4,7,3.848,7,16.092-1.749,17.842-4.9,17.842-4.9S2556.936,634.307,2556.236,631.858Z" transform="translate(-2475.046 -487.112)" fill="#052754"/>
      <path id="Trazado_9014" data-name="Trazado 9014" d="M2534.667,568.019l16.4,8.956.3,3.963,1.219,48.93c6.715,3.9,9.162-1.883,9.162-1.883l3.6-49.2h0a7.607,7.607,0,0,0-6.491-7.2Z" transform="translate(-2475.065 -477.474)" fill="#f9beae"/>
      <path id="Trazado_9015" data-name="Trazado 9015" d="M2534.837,625.237c6.329,4.491,9.288-1.049,9.288-1.049l6.966-46.367.412-2.34.1-2.133h-14.183l-.036,3.012Z" transform="translate(-2475.092 -478.32)" fill="#f9beae"/>
      <g id="Grupo_24878" data-name="Grupo 24878" transform="translate(50.451 143.847)">
        <path id="Trazado_9016" data-name="Trazado 9016" d="M2524.934,674.38a1.146,1.146,0,0,0,1.146-1.146V632.529a1.146,1.146,0,0,0-2.292,0v40.705A1.146,1.146,0,0,0,2524.934,674.38Z" transform="translate(-2523.788 -631.383)" fill="#77b8e0"/>
      </g>
      <path id="Trazado_9017" data-name="Trazado 9017" d="M2526.352,673.31v7.4a1.48,1.48,0,1,1-2.96,0v-7.4Z" transform="translate(-2473.274 -494.195)" fill="#1c427e"/>
      <g id="Grupo_24879" data-name="Grupo 24879" transform="translate(12.981 123.265)">
        <path id="Trazado_9018" data-name="Trazado 9018" d="M2480.39,649.913a1.146,1.146,0,0,0,1.146-1.146V608.062a1.146,1.146,0,0,0-2.292,0v40.706A1.146,1.146,0,0,0,2480.39,649.913Z" transform="translate(-2479.244 -606.916)" fill="#77b8e0"/>
      </g>
      <path id="Trazado_9019" data-name="Trazado 9019" d="M2481.806,648.844v7.4a1.48,1.48,0,0,1-2.96,0v-7.4Z" transform="translate(-2466.2 -490.31)" fill="#1c427e"/>
      <g id="Grupo_24880" data-name="Grupo 24880" transform="translate(85.442 123.698)">
        <path id="Trazado_9020" data-name="Trazado 9020" d="M2566.531,650.429a1.147,1.147,0,0,0,1.146-1.147V608.577a1.146,1.146,0,1,0-2.291,0v40.705A1.146,1.146,0,0,0,2566.531,650.429Z" transform="translate(-2565.385 -607.431)" fill="#77b8e0"/>
      </g>
      <path id="Trazado_9021" data-name="Trazado 9021" d="M2522.587,629.443h0a2.481,2.481,0,0,0,3.7,1.7l34.771-20.454v-3.5Z" transform="translate(-2473.146 -483.694)" fill="#a9d1ea"/>
      <path id="Trazado_9022" data-name="Trazado 9022" d="M2513.871,587.9l10.034-5.087,35.61,20.667-35.61,20.984Z" transform="translate(-2471.762 -479.822)" fill="#bbe0fd"/>
      <path id="Trazado_9023" data-name="Trazado 9023" d="M2567.948,649.358v7.4a1.48,1.48,0,0,1-2.96,0v-7.4Z" transform="translate(-2479.88 -490.391)" fill="#1c427e"/>
      <path id="Trazado_9024" data-name="Trazado 9024" d="M2563.174,542.425s-.993-3.118.405-4.855,2.771.849,2.771.849c5.4-4.193,6.5-2.124,6.5-2.124,3.474,2.8,2.076,4.533,2.076,4.533-.987,2.513-7.968,6.22-7.968,6.22Z" transform="translate(-2479.538 -472.355)" fill="#f4caab"/>
      <path id="Trazado_9025" data-name="Trazado 9025" d="M2493.665,500.2c-3.829-.384-7.187,1.554-8.217,11.844s-.711,28.184-.711,28.184l6.972,32.2,7.692-1.03-3.268-32.629,3.618-25.62S2501.323,500.965,2493.665,500.2Z" transform="translate(-2467.129 -466.696)" fill="#ffd561"/>
      <path id="Trazado_9026" data-name="Trazado 9026" d="M2503.718,606.064c25.081,14.16,51.386-20.074,53.631-23.081.1-.144.158-.216.158-.216l-3.669-4.532a35.043,35.043,0,0,0-29.917-12.88l-34.061-6.115c-.288.763-.561,1.511-.806,2.259C2478,594.063,2503.718,606.064,2503.718,606.064Z" transform="translate(-2467.383 -476.079)" fill="#f1249a"/>
      <path id="Trazado_9027" data-name="Trazado 9027" d="M2503.718,606.49c25.081,14.16,51.386-20.074,53.631-23.081-32.795,20.146-58.395,19.555-68.295-21.485C2478,594.489,2503.718,606.49,2503.718,606.49Z" transform="translate(-2467.383 -476.506)" fill="#f1249a" opacity="0.44" style="mix-blend-mode: multiply;isolation: isolate"/>
      <path id="Trazado_9028" data-name="Trazado 9028" d="M2526.407,518.729l-2.94,11.539a50.674,50.674,0,0,0,2.94,33.4h0s-28.687,4.569-39.792-11.031l.611-3.662a54.774,54.774,0,0,0,2.6-25.583l-2.6-19.075a10.5,10.5,0,0,1,2.908-5.356,7.83,7.83,0,0,1,4.5-2.191,8.09,8.09,0,0,1,4.934.924l21.254,11.615a10.738,10.738,0,0,1,5.588,9.422Z" transform="translate(-2467.434 -466.148)" fill="#fec400"/>
      <path id="Trazado_9029" data-name="Trazado 9029" d="M2527.5,514.055c-3.843.206-6.865,2.635-6.309,12.961.324,6.023,2.306,18.494,3.9,27.842a8.254,8.254,0,0,0,12.332,5.717l23.817-16.367-5.379-7.172-19.723,10.758-.645-21.871S2535.182,513.641,2527.5,514.055Z" transform="translate(-2472.914 -468.902)" fill="#ffd561"/>
      <path id="Trazado_9030" data-name="Trazado 9030" d="M2524.843,470.83s2.449,26.937-8.046,24.489-13.293-15.043-13.293-15.043l7.346-9.446Z" transform="translate(-2470.115 -462.039)" fill="#f9beae"/>
      <path id="Trazado_9031" data-name="Trazado 9031" d="M2514.206,492.653l1.049,11.195s-8.046,2.449-11.543-1.4v-9.795Z" transform="translate(-2470.149 -465.505)" fill="#f4caab"/>
      <circle id="Elipse_1351" data-name="Elipse 1351" cx="3.953" cy="3.953" r="3.953" transform="translate(42.912 16.613)" fill="#f4caab"/>
      <path id="Trazado_9032" data-name="Trazado 9032" d="M2499.85,471.49a13.522,13.522,0,0,1,1.292-4.068c4.2-8.046,17.842-7,17.842-7s7,1.4,7,6.3c0,3.333-2.751,5.529-4.511,6.594-4.044,16.342,6.919,22.621,6.919,22.621s-17.7,9.766-28.687-.61C2491.325,487.416,2496.782,476.32,2499.85,471.49Z" transform="translate(-2468.806 -460.38)" fill="#052754"/>
      <path id="Trazado_9033" data-name="Trazado 9033" d="M2516.3,618.139l-12.082-49.6-37.2-23.528-3.02,2.067,15.42,49.759,33.861,23.051Z" transform="translate(-2463.843 -473.82)" fill="#a9d1ea"/>
      <path id="Trazado_9034" data-name="Trazado 9034" d="M2513.094,620.407l-12.082-49.6-37.2-23.528,12.4,51.825Z" transform="translate(-2463.813 -474.18)" fill="#bbe0fd"/>
    </g>
    <g id="Grupo_24884" data-name="Grupo 24884" transform="translate(2639.317 418.648)">
      <path id="Trazado_9035" data-name="Trazado 9035" d="M2706.222,480.168l42.138,24.079,41.591-24.079-42.138-25.173Z" transform="translate(-2705.993 -454.995)" fill="#5b95d3"/>
      <path id="Trazado_9036" data-name="Trazado 9036" d="M2707.507,574.323l38.233,23.134a3.227,3.227,0,0,0,3.306.022l39.4-23.156a3.227,3.227,0,0,0,.02-5.553l-39.053-23.33a3.226,3.226,0,0,0-3.326.01L2707.506,568.8A3.227,3.227,0,0,0,2707.507,574.323Z" transform="translate(-2705.95 -469.286)" fill="#15325c" opacity="0.33" style="mix-blend-mode: multiply;isolation: isolate"/>
      <path id="Trazado_9037" data-name="Trazado 9037" d="M2755.664,508.9v74.426l42.138-25.173V484.27Z" transform="translate(-2713.845 -459.644)" fill="#23477c"/>
      <g id="Grupo_24882" data-name="Grupo 24882" transform="translate(46.745 33.21)">
        <path id="Trazado_9038" data-name="Trazado 9038" d="M2761.519,576.263v-62.92l32.288-18.869v62.5Zm1.094-62.292v60.362l30.1-17.98V496.381Z" transform="translate(-2761.519 -494.474)" fill="#052754"/>
      </g>
      <path id="Trazado_9039" data-name="Trazado 9039" d="M2706.222,484.27v73.879l41.591,25.173V508.9Z" transform="translate(-2705.993 -459.644)" fill="#3c6a9e"/>
      <path id="Trazado_9040" data-name="Trazado 9040" d="M2711.507,556.781V497.1a2.422,2.422,0,0,1,3.656-2.084l27.854,16.492a2.42,2.42,0,0,1,1.188,2.084V573.64a2.421,2.421,0,0,1-3.675,2.071l-27.854-16.859A2.42,2.42,0,0,1,2711.507,556.781Z" transform="translate(-2706.832 -461.297)" fill="#23477c"/>
      <path id="Trazado_9041" data-name="Trazado 9041" d="M2716.425,557.211a2.423,2.423,0,0,1-1.168-2.072V495.462a2.484,2.484,0,0,1,.022-.325l-.2-.117a2.42,2.42,0,0,0-3.655,2.084v59.677a2.42,2.42,0,0,0,1.167,2.071l27.854,16.859a2.421,2.421,0,0,0,3.653-1.749Z" transform="translate(-2706.82 -461.297)" fill="#052754"/>
      <path id="Trazado_9042" data-name="Trazado 9042" d="M2745.294,517.386l-27.362-16.2v9.3l27.362,16.2Z" transform="translate(-2707.853 -462.33)" fill="#5b95d3"/>
      <path id="Trazado_9043" data-name="Trazado 9043" d="M2745.294,531.048l-27.362-16.2v9.3l27.362,16.2Z" transform="translate(-2707.853 -464.5)" fill="#5b95d3"/>
      <path id="Trazado_9044" data-name="Trazado 9044" d="M2745.294,544.71l-27.362-16.2v9.3l27.362,16.2Z" transform="translate(-2707.853 -466.669)" fill="#5b95d3"/>
      <path id="Trazado_9045" data-name="Trazado 9045" d="M2745.294,558.372l-27.362-16.2v9.3l27.362,16.2Z" transform="translate(-2707.853 -468.839)" fill="#5b95d3"/>
      <path id="Trazado_9046" data-name="Trazado 9046" d="M2745.294,572.034l-27.362-16.2v9.3l27.362,16.2Z" transform="translate(-2707.853 -471.009)" fill="#5b95d3"/>
      <g id="Grupo_24883" data-name="Grupo 24883" transform="translate(14.776 43.233)">
        <path id="Trazado_9047" data-name="Trazado 9047" d="M2723.515,506.389V512.5l17.969,10.64v-6.11Z" transform="translate(-2723.515 -506.389)" fill="#d6effb"/>
        <path id="Trazado_9048" data-name="Trazado 9048" d="M2723.515,526.16l17.969,10.64V530.69l-17.969-10.639Z" transform="translate(-2723.515 -508.559)" fill="#d6effb"/>
        <path id="Trazado_9049" data-name="Trazado 9049" d="M2723.515,539.822l17.969,10.639v-6.109l-17.969-10.639Z" transform="translate(-2723.515 -510.729)" fill="#d6effb"/>
        <path id="Trazado_9050" data-name="Trazado 9050" d="M2723.515,553.484l17.969,10.639v-6.109l-17.969-10.639Z" transform="translate(-2723.515 -512.898)" fill="#d6effb"/>
        <path id="Trazado_9051" data-name="Trazado 9051" d="M2723.515,567.146l17.969,10.639v-6.109l-17.969-10.639Z" transform="translate(-2723.515 -515.068)" fill="#d6effb"/>
      </g>
    </g>
    <g id="Grupo_24887" data-name="Grupo 24887" transform="translate(2420.794 307.663)">
      <g id="Grupo_24885" data-name="Grupo 24885" transform="translate(6.015 77.798)" opacity="0.4" style="mix-blend-mode: multiply;isolation: isolate">
        <path id="Trazado_9052" data-name="Trazado 9052" d="M2487.219,425.412c0,5.451-7.588,9.87-16.949,9.87s-16.948-4.419-16.948-9.87,7.588-9.87,16.948-9.87S2487.219,419.961,2487.219,425.412Z" transform="translate(-2453.321 -415.542)" fill="#7d88c4"/>
      </g>
      <path id="Trazado_9053" data-name="Trazado 9053" d="M2486.974,387.862v21.089c0,.2-.006.4-.011.6a16.644,16.644,0,0,1-8.378,13.851,16.64,16.64,0,0,1-24.9-14.449V387.862Z" transform="translate(-2447.364 -333.349)" fill="#77b8e0"/>
      <path id="Trazado_9054" data-name="Trazado 9054" d="M2486.963,410.122a16.644,16.644,0,0,1-8.378,13.851,16.64,16.64,0,0,1-24.9-14.449V391.471C2461.953,409.2,2475.1,412.153,2486.963,410.122Z" transform="translate(-2447.364 -333.922)" fill="#262e54" opacity="0.3" style="mix-blend-mode: multiply;isolation: isolate"/>
      <ellipse id="Elipse_1352" data-name="Elipse 1352" cx="16.949" cy="9.87" rx="16.949" ry="9.87" transform="translate(6.014 44.511)" fill="#bbe0fd"/>
      <ellipse id="Elipse_1353" data-name="Elipse 1353" cx="12.399" cy="7.221" rx="12.399" ry="7.221" transform="translate(10.564 47.16)" fill="#15325c"/>
      <path id="Trazado_9055" data-name="Trazado 9055" d="M2471.128,383.634c5.495,0,10.151,2.082,11.778,4.964a4.558,4.558,0,0,0,.621-2.257c0-3.988-5.552-7.221-12.4-7.221s-12.4,3.233-12.4,7.221a4.566,4.566,0,0,0,.621,2.257C2460.978,385.716,2465.635,383.634,2471.128,383.634Z" transform="translate(-2448.165 -331.96)" fill="#262e54" opacity="0.3" style="mix-blend-mode: multiply;isolation: isolate"/>
      <g id="Grupo_24886" data-name="Grupo 24886">
        <path id="Trazado_9056" data-name="Trazado 9056" d="M2497.534,355.489a53.637,53.637,0,0,1-4.869,16.186c-3.939,8.027-9.9,14.3-17.278,14.932l-.251.014-.99.045a83.97,83.97,0,0,1,3.779-7.716,92.434,92.434,0,0,1,7.672-11.893c.177-.207.34-.413.5-.635A51.557,51.557,0,0,1,2497.534,355.489Z" transform="translate(-2450.614 -328.207)" fill="#77b8e0"/>
        <path id="Trazado_9057" data-name="Trazado 9057" d="M2488.735,327.69s-16.561,25.33-14.613,54.558l1.24-.056C2492.19,366.549,2488.735,327.69,2488.735,327.69Z" transform="translate(-2450.585 -323.793)" fill="#5b95d3"/>
        <path id="Trazado_9058" data-name="Trazado 9058" d="M2469.543,386.666l-1.239-.059c-12-1.033-20.244-17-22.133-31.118a51.037,51.037,0,0,1,11.435,10.962A94.614,94.614,0,0,1,2469.543,386.666Z" transform="translate(-2446.171 -328.207)" fill="#77b8e0"/>
        <path id="Trazado_9059" data-name="Trazado 9059" d="M2471.231,380.584c-.014.368-.03.738-.059,1.121,0,.178-.014.369-.029.546l-1.239-.059c-5.385-5.017-8.706-12.409-10.7-20.156-4.265-16.407-2.671-34.348-2.671-34.348a102.619,102.619,0,0,1,10.2,22.4v.015a91.328,91.328,0,0,1,4.5,23.754C2471.319,376.054,2471.334,378.3,2471.231,380.584Z" transform="translate(-2447.771 -323.792)" fill="#5b95d3"/>
        <path id="Trazado_9060" data-name="Trazado 9060" d="M2479.419,356.506a63.659,63.659,0,0,1-2.36,17.293,55.386,55.386,0,0,1-2.79,7.672c0,.015-.015.029-.015.045h-.974c-.044-.177-.088-.368-.132-.546a136.948,136.948,0,0,1-4.441-31.6v-.015a95.335,95.335,0,0,1,.634-13.132c1.048-8.676,2.966-13.161,2.966-13.161a83.375,83.375,0,0,1,6.448,23.18A76.073,76.073,0,0,1,2479.419,356.506Z" transform="translate(-2449.747 -323.057)" fill="#77b8e0"/>
        <path id="Trazado_9061" data-name="Trazado 9061" d="M2488.222,367.26a35.975,35.975,0,0,1-6.33,9.251c-3.143,3.2-6.817,5.326-10.948,5.681l-.251.014c0,.015-.015.029-.015.045h-.974c-.044-.177-.088-.368-.132-.546,0,.178-.014.369-.029.546l-1.239-.059c-12-1.033-20.244-17-22.133-31.118a51.036,51.036,0,0,1,11.435,10.962c-.118-.471-.237-.944-.34-1.416l-.014-.015c-3.821-15.994-2.317-32.918-2.317-32.918a102.625,102.625,0,0,1,10.2,22.4,95.181,95.181,0,0,1,.634-13.132,58.23,58.23,0,0,0,7.318,16.525,38.971,38.971,0,0,0,2.76,3.763,39.367,39.367,0,0,0,5.312,5.4c.1.088.192.162.281.236A35.016,35.016,0,0,0,2488.222,367.26Z" transform="translate(-2446.171 -323.792)" fill="#77b8e0" opacity="0.33" style="mix-blend-mode: multiply;isolation: isolate"/>
        <path id="Trazado_9062" data-name="Trazado 9062" d="M2481.892,380.927c-3.143,3.2-6.817,5.326-10.948,5.681l-.251.014c0,.015-.015.029-.015.045h-.974c-.044-.177-.088-.368-.132-.546,0,.177-.014.369-.029.546l-1.239-.059c-12-1.033-20.244-17-22.133-31.118a51.037,51.037,0,0,1,11.435,10.962c-.118-.471-.237-.944-.34-1.416C2462.991,373.534,2471.476,378.463,2481.892,380.927Z" transform="translate(-2446.171 -328.207)" fill="#77b8e0" opacity="0.33" style="mix-blend-mode: multiply;isolation: isolate"/>
      </g>
    </g>
    <g id="Grupo_24890" data-name="Grupo 24890" transform="translate(2325.082 342.77)">
      <g id="Grupo_24888" data-name="Grupo 24888" transform="translate(0 45.009)">
        <path id="Trazado_9063" data-name="Trazado 9063" d="M2419.445,491.729,2376.526,466.6l-44.136,25.131,43.528,25.131Z" transform="translate(-2332.39 -425.969)" fill="#15325c" opacity="0.33" style="mix-blend-mode: multiply;isolation: isolate"/>
        <path id="Trazado_9064" data-name="Trazado 9064" d="M2419.445,443.43,2376.526,418.3,2332.39,443.43l43.528,25.131Z" transform="translate(-2332.39 -418.299)" fill="#d6effb"/>
        <path id="Trazado_9065" data-name="Trazado 9065" d="M2427.663,473.955V448.174L2384.135,473.3l.456,25.394Z" transform="translate(-2340.608 -423.044)" fill="#77b8e0"/>
        <path id="Trazado_9066" data-name="Trazado 9066" d="M2332.39,448.174l43.528,25.131.456,25.394-43.528-24.744Z" transform="translate(-2332.39 -423.044)" fill="#a9d1ea"/>
      </g>
      <g id="Grupo_24889" data-name="Grupo 24889" transform="translate(0.456)">
        <path id="Trazado_9067" data-name="Trazado 9067" d="M2419.988,389.923l-42.92-25.131-44.136,25.131,43.528,25.131Z" transform="translate(-2332.932 -364.792)" fill="#bbe0fd"/>
        <path id="Trazado_9068" data-name="Trazado 9068" d="M2428.206,420.448V394.667L2384.677,419.8l.457,25.394Z" transform="translate(-2341.15 -369.537)" fill="#77b8e0"/>
        <path id="Trazado_9069" data-name="Trazado 9069" d="M2332.932,394.667,2376.46,419.8l.457,25.394-43.528-24.744Z" transform="translate(-2332.932 -369.537)" fill="#a9d1ea"/>
      </g>
    </g>
  </g>
</svg>
